<mxfile host="app.diagrams.net" modified="2021-01-19T13:40:53.253Z" agent="5.0 (Windows NT 10.0; Win64; x64) AppleWebKit/537.36 (KHTML, like Gecko) Chrome/87.0.4280.141 Safari/537.36 Edg/87.0.664.75" etag="mdLZu4GFVmju308OhOVR" version="14.2.4" type="github">
  <diagram id="BQ6YDz9hbZttzkANq18R" name="Page-1">
    <mxGraphModel dx="5104" dy="4424" grid="1" gridSize="10" guides="1" tooltips="1" connect="1" arrows="1" fold="1" page="1" pageScale="1" pageWidth="827" pageHeight="1169" math="0" shadow="0">
      <root>
        <mxCell id="0" />
        <mxCell id="1" parent="0" />
        <mxCell id="K82wzEV4hnkRwuUB6ylu-1" value="" style="rounded=1;whiteSpace=wrap;html=1;fontColor=#000000;align=left;" vertex="1" parent="1">
          <mxGeometry x="-710" y="136" width="540" height="320" as="geometry" />
        </mxCell>
        <mxCell id="K82wzEV4hnkRwuUB6ylu-2" value="" style="rounded=1;whiteSpace=wrap;html=1;strokeColor=#000000;fontColor=#000000;align=left;" vertex="1" parent="1">
          <mxGeometry x="260" y="-169" width="570" height="232" as="geometry" />
        </mxCell>
        <mxCell id="K82wzEV4hnkRwuUB6ylu-3" value="" style="rounded=1;whiteSpace=wrap;html=1;" vertex="1" parent="1">
          <mxGeometry x="-1330" y="-650" width="390" height="180" as="geometry" />
        </mxCell>
        <mxCell id="K82wzEV4hnkRwuUB6ylu-4" value="" style="rounded=1;whiteSpace=wrap;html=1;fontColor=#000000;align=left;" vertex="1" parent="1">
          <mxGeometry x="-680" y="-105" width="442" height="150" as="geometry" />
        </mxCell>
        <mxCell id="K82wzEV4hnkRwuUB6ylu-5" value="" style="rounded=1;whiteSpace=wrap;html=1;fontColor=#000000;align=left;" vertex="1" parent="1">
          <mxGeometry x="-160" y="410" width="350" height="186" as="geometry" />
        </mxCell>
        <mxCell id="K82wzEV4hnkRwuUB6ylu-6" value="" style="rounded=1;whiteSpace=wrap;html=1;strokeColor=#000000;fontColor=#000000;align=left;" vertex="1" parent="1">
          <mxGeometry x="310" y="92" width="380" height="168" as="geometry" />
        </mxCell>
        <mxCell id="K82wzEV4hnkRwuUB6ylu-7" value="템플릿 페이지&lt;br&gt;&lt;br&gt;&lt;br&gt;&lt;br&gt;&lt;br&gt;&lt;br&gt;" style="rounded=0;whiteSpace=wrap;html=1;" vertex="1" parent="1">
          <mxGeometry x="-60" y="-1061" width="150" height="115" as="geometry" />
        </mxCell>
        <mxCell id="K82wzEV4hnkRwuUB6ylu-8" style="edgeStyle=orthogonalEdgeStyle;rounded=0;orthogonalLoop=1;jettySize=auto;html=1;exitX=0;exitY=0.25;exitDx=0;exitDy=0;entryX=1;entryY=0.25;entryDx=0;entryDy=0;" edge="1" parent="1" source="K82wzEV4hnkRwuUB6ylu-10" target="K82wzEV4hnkRwuUB6ylu-52">
          <mxGeometry relative="1" as="geometry" />
        </mxCell>
        <mxCell id="K82wzEV4hnkRwuUB6ylu-9" style="edgeStyle=orthogonalEdgeStyle;rounded=0;orthogonalLoop=1;jettySize=auto;html=1;exitX=1;exitY=0.5;exitDx=0;exitDy=0;entryX=0;entryY=0.5;entryDx=0;entryDy=0;" edge="1" parent="1" source="K82wzEV4hnkRwuUB6ylu-10" target="K82wzEV4hnkRwuUB6ylu-38">
          <mxGeometry relative="1" as="geometry" />
        </mxCell>
        <mxCell id="K82wzEV4hnkRwuUB6ylu-10" value="메인페이지&lt;br&gt;/index.jsp" style="rounded=0;whiteSpace=wrap;html=1;" vertex="1" parent="1">
          <mxGeometry x="90" y="72" width="120" height="60" as="geometry" />
        </mxCell>
        <mxCell id="K82wzEV4hnkRwuUB6ylu-11" value="" style="edgeStyle=orthogonalEdgeStyle;rounded=0;orthogonalLoop=1;jettySize=auto;html=1;strokeColor=#3333FF;" edge="1" parent="1" source="K82wzEV4hnkRwuUB6ylu-13" target="K82wzEV4hnkRwuUB6ylu-27">
          <mxGeometry relative="1" as="geometry" />
        </mxCell>
        <mxCell id="K82wzEV4hnkRwuUB6ylu-12" value="member_id&lt;br&gt;member_pw&lt;br&gt;member_nick&lt;br&gt;member_birth&lt;br&gt;member_email&lt;br&gt;member_address&lt;br&gt;member_phone&lt;br&gt;member_broker" style="edgeLabel;html=1;align=left;verticalAlign=middle;resizable=0;points=[];" vertex="1" connectable="0" parent="K82wzEV4hnkRwuUB6ylu-11">
          <mxGeometry x="0.3448" y="-1" relative="1" as="geometry">
            <mxPoint x="-60.71" y="-60" as="offset" />
          </mxGeometry>
        </mxCell>
        <mxCell id="K82wzEV4hnkRwuUB6ylu-13" value="회원가입&lt;br&gt;/member/join.jsp" style="rounded=0;whiteSpace=wrap;html=1;" vertex="1" parent="1">
          <mxGeometry x="288" y="-83" width="120" height="60" as="geometry" />
        </mxCell>
        <mxCell id="K82wzEV4hnkRwuUB6ylu-14" style="edgeStyle=orthogonalEdgeStyle;rounded=0;orthogonalLoop=1;jettySize=auto;html=1;exitX=0.5;exitY=0;exitDx=0;exitDy=0;entryX=0.5;entryY=1;entryDx=0;entryDy=0;" edge="1" parent="1" source="K82wzEV4hnkRwuUB6ylu-16" target="K82wzEV4hnkRwuUB6ylu-126">
          <mxGeometry relative="1" as="geometry">
            <Array as="points">
              <mxPoint x="150" y="-290" />
              <mxPoint x="320" y="-290" />
            </Array>
          </mxGeometry>
        </mxCell>
        <mxCell id="K82wzEV4hnkRwuUB6ylu-15" style="edgeStyle=orthogonalEdgeStyle;rounded=0;orthogonalLoop=1;jettySize=auto;html=1;exitX=0.5;exitY=0;exitDx=0;exitDy=0;entryX=0.5;entryY=1;entryDx=0;entryDy=0;" edge="1" parent="1" source="K82wzEV4hnkRwuUB6ylu-16" target="K82wzEV4hnkRwuUB6ylu-122">
          <mxGeometry relative="1" as="geometry" />
        </mxCell>
        <mxCell id="K82wzEV4hnkRwuUB6ylu-16" value="" style="rounded=0;whiteSpace=wrap;html=1;fillColor=#f8cecc;strokeColor=#b85450;" vertex="1" parent="1">
          <mxGeometry x="90" y="42" width="120" height="30" as="geometry" />
        </mxCell>
        <mxCell id="K82wzEV4hnkRwuUB6ylu-17" style="edgeStyle=orthogonalEdgeStyle;rounded=0;orthogonalLoop=1;jettySize=auto;html=1;exitX=0.25;exitY=1;exitDx=0;exitDy=0;entryX=0.331;entryY=0;entryDx=0;entryDy=0;entryPerimeter=0;" edge="1" parent="1" source="K82wzEV4hnkRwuUB6ylu-19" target="K82wzEV4hnkRwuUB6ylu-45">
          <mxGeometry relative="1" as="geometry">
            <Array as="points" />
          </mxGeometry>
        </mxCell>
        <mxCell id="K82wzEV4hnkRwuUB6ylu-18" style="edgeStyle=orthogonalEdgeStyle;rounded=0;orthogonalLoop=1;jettySize=auto;html=1;exitX=1;exitY=0.5;exitDx=0;exitDy=0;entryX=0;entryY=0.5;entryDx=0;entryDy=0;startArrow=none;startFill=0;endArrow=classic;endFill=1;strokeColor=#000000;" edge="1" parent="1" source="K82wzEV4hnkRwuUB6ylu-19" target="K82wzEV4hnkRwuUB6ylu-208">
          <mxGeometry relative="1" as="geometry">
            <Array as="points">
              <mxPoint x="260" y="147" />
              <mxPoint x="260" y="516" />
            </Array>
          </mxGeometry>
        </mxCell>
        <mxCell id="K82wzEV4hnkRwuUB6ylu-19" value="" style="rounded=0;whiteSpace=wrap;html=1;fillColor=#dae8fc;strokeColor=#6c8ebf;" vertex="1" parent="1">
          <mxGeometry x="90" y="132" width="120" height="30" as="geometry" />
        </mxCell>
        <mxCell id="K82wzEV4hnkRwuUB6ylu-20" value="" style="rounded=0;whiteSpace=wrap;html=1;fillColor=#f8cecc;strokeColor=#b85450;" vertex="1" parent="1">
          <mxGeometry x="288" y="-113" width="120" height="30" as="geometry" />
        </mxCell>
        <mxCell id="K82wzEV4hnkRwuUB6ylu-21" value="" style="rounded=0;whiteSpace=wrap;html=1;fillColor=#dae8fc;strokeColor=#6c8ebf;" vertex="1" parent="1">
          <mxGeometry x="288" y="-23" width="120" height="30" as="geometry" />
        </mxCell>
        <mxCell id="K82wzEV4hnkRwuUB6ylu-22" value="헤더+메뉴&lt;br&gt;/template/header.jsp" style="rounded=0;whiteSpace=wrap;html=1;fillColor=#f8cecc;strokeColor=#b85450;" vertex="1" parent="1">
          <mxGeometry x="-45" y="-1026" width="120" height="30" as="geometry" />
        </mxCell>
        <mxCell id="K82wzEV4hnkRwuUB6ylu-23" value="푸터&lt;br&gt;/template/footer.jsp" style="rounded=0;whiteSpace=wrap;html=1;fillColor=#dae8fc;strokeColor=#6c8ebf;" vertex="1" parent="1">
          <mxGeometry x="-45" y="-986" width="120" height="30" as="geometry" />
        </mxCell>
        <mxCell id="K82wzEV4hnkRwuUB6ylu-24" value="템플릿 페이지에서는 절대경로만 사용이 가능하다&lt;br&gt;어느 페이지에 붙어서 실행될 지 모르기 때문이다!" style="text;html=1;strokeColor=none;fillColor=none;align=left;verticalAlign=middle;whiteSpace=wrap;rounded=0;" vertex="1" parent="1">
          <mxGeometry x="-60" y="-1091" width="280" height="20" as="geometry" />
        </mxCell>
        <mxCell id="K82wzEV4hnkRwuUB6ylu-25" value="아이디 중복" style="edgeStyle=orthogonalEdgeStyle;rounded=0;orthogonalLoop=1;jettySize=auto;html=1;exitX=0;exitY=0.75;exitDx=0;exitDy=0;entryX=1;entryY=0.75;entryDx=0;entryDy=0;" edge="1" parent="1" source="K82wzEV4hnkRwuUB6ylu-27" target="K82wzEV4hnkRwuUB6ylu-33">
          <mxGeometry relative="1" as="geometry" />
        </mxCell>
        <mxCell id="K82wzEV4hnkRwuUB6ylu-26" style="edgeStyle=orthogonalEdgeStyle;rounded=0;orthogonalLoop=1;jettySize=auto;html=1;exitX=1;exitY=0.5;exitDx=0;exitDy=0;entryX=0;entryY=0.5;entryDx=0;entryDy=0;" edge="1" parent="1" source="K82wzEV4hnkRwuUB6ylu-27" target="K82wzEV4hnkRwuUB6ylu-28">
          <mxGeometry relative="1" as="geometry" />
        </mxCell>
        <mxCell id="K82wzEV4hnkRwuUB6ylu-27" value="회원가입처리&lt;br&gt;/member/join.do" style="rounded=0;whiteSpace=wrap;html=1;fontColor=#FF0000;" vertex="1" parent="1">
          <mxGeometry x="500" y="-83" width="120" height="60" as="geometry" />
        </mxCell>
        <mxCell id="K82wzEV4hnkRwuUB6ylu-28" value="회원가입성공&lt;br&gt;/member/join_success.jsp" style="rounded=0;whiteSpace=wrap;html=1;" vertex="1" parent="1">
          <mxGeometry x="660" y="-83" width="150" height="60" as="geometry" />
        </mxCell>
        <mxCell id="K82wzEV4hnkRwuUB6ylu-29" value="" style="rounded=0;whiteSpace=wrap;html=1;fillColor=#f8cecc;strokeColor=#b85450;" vertex="1" parent="1">
          <mxGeometry x="660" y="-113" width="150" height="30" as="geometry" />
        </mxCell>
        <mxCell id="K82wzEV4hnkRwuUB6ylu-30" style="edgeStyle=orthogonalEdgeStyle;rounded=0;orthogonalLoop=1;jettySize=auto;html=1;exitX=0.5;exitY=1;exitDx=0;exitDy=0;entryX=1;entryY=0.5;entryDx=0;entryDy=0;" edge="1" parent="1" source="K82wzEV4hnkRwuUB6ylu-31" target="K82wzEV4hnkRwuUB6ylu-35">
          <mxGeometry relative="1" as="geometry" />
        </mxCell>
        <mxCell id="K82wzEV4hnkRwuUB6ylu-31" value="" style="rounded=0;whiteSpace=wrap;html=1;fillColor=#dae8fc;strokeColor=#6c8ebf;" vertex="1" parent="1">
          <mxGeometry x="660" y="-23" width="150" height="30" as="geometry" />
        </mxCell>
        <mxCell id="K82wzEV4hnkRwuUB6ylu-32" value="" style="rounded=0;whiteSpace=wrap;html=1;fillColor=#f8cecc;strokeColor=#b85450;" vertex="1" parent="1">
          <mxGeometry x="288" y="-113" width="120" height="30" as="geometry" />
        </mxCell>
        <mxCell id="K82wzEV4hnkRwuUB6ylu-33" value="회원가입&lt;br&gt;/member/join.jsp" style="rounded=0;whiteSpace=wrap;html=1;" vertex="1" parent="1">
          <mxGeometry x="288" y="-83" width="120" height="60" as="geometry" />
        </mxCell>
        <mxCell id="K82wzEV4hnkRwuUB6ylu-34" style="edgeStyle=orthogonalEdgeStyle;rounded=0;orthogonalLoop=1;jettySize=auto;html=1;exitX=0.25;exitY=0;exitDx=0;exitDy=0;entryX=0.602;entryY=1.005;entryDx=0;entryDy=0;entryPerimeter=0;" edge="1" parent="1" source="K82wzEV4hnkRwuUB6ylu-35" target="K82wzEV4hnkRwuUB6ylu-21">
          <mxGeometry relative="1" as="geometry">
            <mxPoint x="350" y="8" as="targetPoint" />
          </mxGeometry>
        </mxCell>
        <mxCell id="K82wzEV4hnkRwuUB6ylu-35" value="" style="rounded=0;whiteSpace=wrap;html=1;fillColor=#f8cecc;strokeColor=#b85450;" vertex="1" parent="1">
          <mxGeometry x="330" y="106" width="120" height="30" as="geometry" />
        </mxCell>
        <mxCell id="K82wzEV4hnkRwuUB6ylu-36" value="" style="edgeStyle=orthogonalEdgeStyle;rounded=0;orthogonalLoop=1;jettySize=auto;html=1;strokeColor=#3333FF;" edge="1" parent="1" source="K82wzEV4hnkRwuUB6ylu-38" target="K82wzEV4hnkRwuUB6ylu-43">
          <mxGeometry relative="1" as="geometry" />
        </mxCell>
        <mxCell id="K82wzEV4hnkRwuUB6ylu-37" value="member_id&lt;br&gt;member_pw" style="edgeLabel;html=1;align=left;verticalAlign=middle;resizable=0;points=[];" vertex="1" connectable="0" parent="K82wzEV4hnkRwuUB6ylu-36">
          <mxGeometry x="-0.1933" y="-1" relative="1" as="geometry">
            <mxPoint x="-24" y="-15" as="offset" />
          </mxGeometry>
        </mxCell>
        <mxCell id="K82wzEV4hnkRwuUB6ylu-38" value="로그인입력&lt;br&gt;/member/login.jsp" style="rounded=0;whiteSpace=wrap;html=1;" vertex="1" parent="1">
          <mxGeometry x="330" y="136" width="120" height="60" as="geometry" />
        </mxCell>
        <mxCell id="K82wzEV4hnkRwuUB6ylu-39" value="" style="rounded=0;whiteSpace=wrap;html=1;fillColor=#dae8fc;strokeColor=#6c8ebf;" vertex="1" parent="1">
          <mxGeometry x="330" y="196" width="120" height="30" as="geometry" />
        </mxCell>
        <mxCell id="K82wzEV4hnkRwuUB6ylu-40" value="" style="edgeStyle=orthogonalEdgeStyle;rounded=0;orthogonalLoop=1;jettySize=auto;html=1;fontColor=#000000;exitX=0.5;exitY=1;exitDx=0;exitDy=0;" edge="1" parent="1" source="K82wzEV4hnkRwuUB6ylu-43">
          <mxGeometry relative="1" as="geometry">
            <Array as="points">
              <mxPoint x="550" y="196" />
              <mxPoint x="550" y="240" />
              <mxPoint x="160" y="240" />
            </Array>
            <mxPoint x="159.9999999999991" y="163" as="targetPoint" />
          </mxGeometry>
        </mxCell>
        <mxCell id="K82wzEV4hnkRwuUB6ylu-41" value="로그인 성공" style="edgeLabel;html=1;align=center;verticalAlign=middle;resizable=0;points=[];fontColor=#000000;" vertex="1" connectable="0" parent="K82wzEV4hnkRwuUB6ylu-40">
          <mxGeometry x="-0.236" y="1" relative="1" as="geometry">
            <mxPoint x="-54" as="offset" />
          </mxGeometry>
        </mxCell>
        <mxCell id="K82wzEV4hnkRwuUB6ylu-42" value="로그인 실패" style="edgeStyle=orthogonalEdgeStyle;rounded=0;orthogonalLoop=1;jettySize=auto;html=1;strokeColor=#000000;fontColor=#000000;entryX=1;entryY=0.75;entryDx=0;entryDy=0;" edge="1" parent="1" source="K82wzEV4hnkRwuUB6ylu-43" target="K82wzEV4hnkRwuUB6ylu-38">
          <mxGeometry y="9" relative="1" as="geometry">
            <Array as="points">
              <mxPoint x="530" y="181" />
              <mxPoint x="530" y="181" />
            </Array>
            <mxPoint as="offset" />
          </mxGeometry>
        </mxCell>
        <mxCell id="K82wzEV4hnkRwuUB6ylu-43" value="로그인검사&lt;br&gt;/member/login.do&lt;br&gt;세션에 check값 추가" style="rounded=0;whiteSpace=wrap;html=1;fontColor=#FF3333;" vertex="1" parent="1">
          <mxGeometry x="550" y="136" width="120" height="60" as="geometry" />
        </mxCell>
        <mxCell id="K82wzEV4hnkRwuUB6ylu-44" style="edgeStyle=orthogonalEdgeStyle;rounded=0;orthogonalLoop=1;jettySize=auto;html=1;exitX=0;exitY=0.5;exitDx=0;exitDy=0;entryX=0;entryY=0.75;entryDx=0;entryDy=0;" edge="1" parent="1" source="K82wzEV4hnkRwuUB6ylu-45" target="K82wzEV4hnkRwuUB6ylu-10">
          <mxGeometry relative="1" as="geometry">
            <Array as="points">
              <mxPoint x="70" y="290" />
              <mxPoint x="70" y="117" />
            </Array>
          </mxGeometry>
        </mxCell>
        <mxCell id="K82wzEV4hnkRwuUB6ylu-45" value="로그아웃&lt;br&gt;/member/logout.do&lt;br&gt;세션에 check값 제거" style="rounded=0;whiteSpace=wrap;html=1;fontColor=#FF3333;" vertex="1" parent="1">
          <mxGeometry x="80" y="260" width="120" height="60" as="geometry" />
        </mxCell>
        <mxCell id="K82wzEV4hnkRwuUB6ylu-46" style="edgeStyle=orthogonalEdgeStyle;rounded=0;orthogonalLoop=1;jettySize=auto;html=1;exitX=0.5;exitY=1;exitDx=0;exitDy=0;" edge="1" parent="1" source="K82wzEV4hnkRwuUB6ylu-47" target="K82wzEV4hnkRwuUB6ylu-54">
          <mxGeometry relative="1" as="geometry" />
        </mxCell>
        <mxCell id="K82wzEV4hnkRwuUB6ylu-47" value="" style="rounded=0;whiteSpace=wrap;html=1;fillColor=#dae8fc;strokeColor=#6c8ebf;" vertex="1" parent="1">
          <mxGeometry x="-130" y="350" width="120" height="30" as="geometry" />
        </mxCell>
        <mxCell id="K82wzEV4hnkRwuUB6ylu-48" style="edgeStyle=orthogonalEdgeStyle;rounded=0;orthogonalLoop=1;jettySize=auto;html=1;exitX=0.5;exitY=0;exitDx=0;exitDy=0;entryX=1;entryY=0.5;entryDx=0;entryDy=0;strokeColor=#000000;" edge="1" parent="1" source="K82wzEV4hnkRwuUB6ylu-49" target="K82wzEV4hnkRwuUB6ylu-71">
          <mxGeometry relative="1" as="geometry" />
        </mxCell>
        <mxCell id="K82wzEV4hnkRwuUB6ylu-49" value="" style="rounded=0;whiteSpace=wrap;html=1;fillColor=#f8cecc;strokeColor=#b85450;" vertex="1" parent="1">
          <mxGeometry x="-130" y="260" width="120" height="30" as="geometry" />
        </mxCell>
        <mxCell id="K82wzEV4hnkRwuUB6ylu-50" style="edgeStyle=orthogonalEdgeStyle;rounded=0;orthogonalLoop=1;jettySize=auto;html=1;exitX=0;exitY=0.25;exitDx=0;exitDy=0;entryX=1;entryY=0.25;entryDx=0;entryDy=0;" edge="1" parent="1" source="K82wzEV4hnkRwuUB6ylu-52" target="K82wzEV4hnkRwuUB6ylu-119">
          <mxGeometry relative="1" as="geometry" />
        </mxCell>
        <mxCell id="K82wzEV4hnkRwuUB6ylu-51" style="edgeStyle=orthogonalEdgeStyle;rounded=0;orthogonalLoop=1;jettySize=auto;html=1;exitX=0;exitY=0.5;exitDx=0;exitDy=0;entryX=0.5;entryY=0;entryDx=0;entryDy=0;startArrow=none;startFill=0;endArrow=classic;endFill=1;strokeColor=#000000;" edge="1" parent="1" source="K82wzEV4hnkRwuUB6ylu-52" target="K82wzEV4hnkRwuUB6ylu-182">
          <mxGeometry relative="1" as="geometry">
            <Array as="points">
              <mxPoint x="-190" y="320" />
              <mxPoint x="-190" y="520" />
              <mxPoint x="-430" y="520" />
            </Array>
          </mxGeometry>
        </mxCell>
        <mxCell id="K82wzEV4hnkRwuUB6ylu-52" value="내정보&lt;br&gt;/member/my.jsp" style="rounded=0;whiteSpace=wrap;html=1;" vertex="1" parent="1">
          <mxGeometry x="-130" y="290" width="120" height="60" as="geometry" />
        </mxCell>
        <mxCell id="K82wzEV4hnkRwuUB6ylu-53" style="edgeStyle=orthogonalEdgeStyle;rounded=0;orthogonalLoop=1;jettySize=auto;html=1;exitX=1;exitY=0.5;exitDx=0;exitDy=0;entryX=0;entryY=0.5;entryDx=0;entryDy=0;" edge="1" parent="1" source="K82wzEV4hnkRwuUB6ylu-54" target="K82wzEV4hnkRwuUB6ylu-58">
          <mxGeometry relative="1" as="geometry" />
        </mxCell>
        <mxCell id="K82wzEV4hnkRwuUB6ylu-54" value="회원탈퇴&lt;br&gt;/member/delete.do&lt;br&gt;회원정보삭제+로그아웃" style="rounded=0;whiteSpace=wrap;html=1;fontColor=#FF3333;" vertex="1" parent="1">
          <mxGeometry x="-145" y="473" width="150" height="60" as="geometry" />
        </mxCell>
        <mxCell id="K82wzEV4hnkRwuUB6ylu-55" value="" style="rounded=0;whiteSpace=wrap;html=1;fillColor=#dae8fc;strokeColor=#6c8ebf;" vertex="1" parent="1">
          <mxGeometry x="50" y="533" width="120" height="30" as="geometry" />
        </mxCell>
        <mxCell id="K82wzEV4hnkRwuUB6ylu-56" value="" style="rounded=0;whiteSpace=wrap;html=1;fillColor=#f8cecc;strokeColor=#b85450;" vertex="1" parent="1">
          <mxGeometry x="50" y="443" width="120" height="30" as="geometry" />
        </mxCell>
        <mxCell id="K82wzEV4hnkRwuUB6ylu-57" style="edgeStyle=orthogonalEdgeStyle;rounded=0;orthogonalLoop=1;jettySize=auto;html=1;exitX=1;exitY=0.5;exitDx=0;exitDy=0;entryX=1;entryY=0.75;entryDx=0;entryDy=0;" edge="1" parent="1" source="K82wzEV4hnkRwuUB6ylu-58" target="K82wzEV4hnkRwuUB6ylu-10">
          <mxGeometry relative="1" as="geometry">
            <Array as="points">
              <mxPoint x="240" y="503" />
              <mxPoint x="240" y="117" />
            </Array>
          </mxGeometry>
        </mxCell>
        <mxCell id="K82wzEV4hnkRwuUB6ylu-58" value="탈퇴완료&lt;br&gt;/member/goodbye.jsp" style="rounded=0;whiteSpace=wrap;html=1;" vertex="1" parent="1">
          <mxGeometry x="50" y="473" width="120" height="60" as="geometry" />
        </mxCell>
        <mxCell id="K82wzEV4hnkRwuUB6ylu-59" value="회원수정 : 사용자에게 비밀번호, 닉네임, 주소, 이메일, 폰번호를 입력받아 변경" style="text;html=1;strokeColor=none;fillColor=none;align=left;verticalAlign=middle;whiteSpace=wrap;rounded=0;" vertex="1" parent="1">
          <mxGeometry x="-710" y="120" width="440" height="20" as="geometry" />
        </mxCell>
        <mxCell id="K82wzEV4hnkRwuUB6ylu-60" value="" style="rounded=0;whiteSpace=wrap;html=1;fillColor=#dae8fc;strokeColor=#6c8ebf;" vertex="1" parent="1">
          <mxGeometry x="-646" y="241" width="120" height="30" as="geometry" />
        </mxCell>
        <mxCell id="K82wzEV4hnkRwuUB6ylu-61" value="" style="rounded=0;whiteSpace=wrap;html=1;fillColor=#f8cecc;strokeColor=#b85450;" vertex="1" parent="1">
          <mxGeometry x="-646" y="151" width="120" height="30" as="geometry" />
        </mxCell>
        <mxCell id="K82wzEV4hnkRwuUB6ylu-62" value="" style="edgeStyle=orthogonalEdgeStyle;rounded=0;orthogonalLoop=1;jettySize=auto;html=1;strokeColor=#0000FF;entryX=0.664;entryY=0.027;entryDx=0;entryDy=0;entryPerimeter=0;" edge="1" parent="1" target="K82wzEV4hnkRwuUB6ylu-68">
          <mxGeometry relative="1" as="geometry">
            <mxPoint x="-560" y="271" as="sourcePoint" />
            <Array as="points">
              <mxPoint x="-560" y="271" />
            </Array>
          </mxGeometry>
        </mxCell>
        <mxCell id="K82wzEV4hnkRwuUB6ylu-63" value="member_pw&lt;br&gt;member_nick&lt;br&gt;member_address&lt;br&gt;member_email&lt;br&gt;member_phone" style="edgeLabel;html=1;align=left;verticalAlign=middle;resizable=0;points=[];" vertex="1" connectable="0" parent="K82wzEV4hnkRwuUB6ylu-62">
          <mxGeometry x="0.2488" relative="1" as="geometry">
            <mxPoint x="9.869999999999997" y="-14.830000000000002" as="offset" />
          </mxGeometry>
        </mxCell>
        <mxCell id="K82wzEV4hnkRwuUB6ylu-64" value="회원정보 수정 입력&lt;br&gt;/member/edit.jsp" style="rounded=0;whiteSpace=wrap;html=1;" vertex="1" parent="1">
          <mxGeometry x="-646" y="181" width="120" height="60" as="geometry" />
        </mxCell>
        <mxCell id="K82wzEV4hnkRwuUB6ylu-65" style="edgeStyle=orthogonalEdgeStyle;rounded=0;orthogonalLoop=1;jettySize=auto;html=1;exitX=0.395;exitY=0.027;exitDx=0;exitDy=0;exitPerimeter=0;entryX=0.379;entryY=0.996;entryDx=0;entryDy=0;entryPerimeter=0;" edge="1" parent="1" source="K82wzEV4hnkRwuUB6ylu-68" target="K82wzEV4hnkRwuUB6ylu-60">
          <mxGeometry relative="1" as="geometry">
            <mxPoint x="-600.5600000000004" y="367.3000000000003" as="sourcePoint" />
            <mxPoint x="-590" y="300" as="targetPoint" />
            <Array as="points">
              <mxPoint x="-601" y="372" />
              <mxPoint x="-601" y="328" />
            </Array>
          </mxGeometry>
        </mxCell>
        <mxCell id="K82wzEV4hnkRwuUB6ylu-66" value="비밀번호 검사 실패" style="edgeLabel;html=1;align=center;verticalAlign=middle;resizable=0;points=[];" vertex="1" connectable="0" parent="K82wzEV4hnkRwuUB6ylu-65">
          <mxGeometry x="0.1616" relative="1" as="geometry">
            <mxPoint x="-56.120000000000005" y="6.78" as="offset" />
          </mxGeometry>
        </mxCell>
        <mxCell id="K82wzEV4hnkRwuUB6ylu-67" style="edgeStyle=orthogonalEdgeStyle;rounded=0;orthogonalLoop=1;jettySize=auto;html=1;exitX=1;exitY=0.5;exitDx=0;exitDy=0;entryX=0;entryY=0.5;entryDx=0;entryDy=0;" edge="1" parent="1" source="K82wzEV4hnkRwuUB6ylu-68" target="K82wzEV4hnkRwuUB6ylu-47">
          <mxGeometry relative="1" as="geometry">
            <Array as="points">
              <mxPoint x="-210" y="400" />
              <mxPoint x="-210" y="365" />
            </Array>
          </mxGeometry>
        </mxCell>
        <mxCell id="K82wzEV4hnkRwuUB6ylu-68" value="회원수정 처리&lt;br&gt;/member/edit.do&lt;br&gt;세션의 회원번호로 정보수정" style="rounded=0;whiteSpace=wrap;html=1;fontColor=#FF3333;" vertex="1" parent="1">
          <mxGeometry x="-666" y="370" width="160" height="60" as="geometry" />
        </mxCell>
        <mxCell id="K82wzEV4hnkRwuUB6ylu-69" value="" style="rounded=0;whiteSpace=wrap;html=1;fillColor=#dae8fc;strokeColor=#6c8ebf;" vertex="1" parent="1">
          <mxGeometry x="-378" width="120" height="30" as="geometry" />
        </mxCell>
        <mxCell id="K82wzEV4hnkRwuUB6ylu-70" value="" style="rounded=0;whiteSpace=wrap;html=1;fillColor=#f8cecc;strokeColor=#b85450;" vertex="1" parent="1">
          <mxGeometry x="-378" y="-90" width="120" height="30" as="geometry" />
        </mxCell>
        <mxCell id="K82wzEV4hnkRwuUB6ylu-71" value="비밀번호 변경 입력&lt;br&gt;/member/pw.jsp" style="rounded=0;whiteSpace=wrap;html=1;" vertex="1" parent="1">
          <mxGeometry x="-378" y="-60" width="120" height="60" as="geometry" />
        </mxCell>
        <mxCell id="K82wzEV4hnkRwuUB6ylu-72" value="비밀번호 변경 : 사용자에게 현재 비밀번호와 바꿀 비밀번호를 입력받아 변경" style="text;html=1;strokeColor=none;fillColor=none;align=left;verticalAlign=middle;whiteSpace=wrap;rounded=0;" vertex="1" parent="1">
          <mxGeometry x="-666" y="-140" width="418" height="20" as="geometry" />
        </mxCell>
        <mxCell id="K82wzEV4hnkRwuUB6ylu-73" value="" style="edgeStyle=orthogonalEdgeStyle;rounded=0;orthogonalLoop=1;jettySize=auto;html=1;strokeColor=#0000FF;exitX=0.008;exitY=0.367;exitDx=0;exitDy=0;entryX=1;entryY=0.25;entryDx=0;entryDy=0;exitPerimeter=0;" edge="1" parent="1" source="K82wzEV4hnkRwuUB6ylu-71" target="K82wzEV4hnkRwuUB6ylu-77">
          <mxGeometry relative="1" as="geometry">
            <mxPoint x="-368" y="202" as="sourcePoint" />
            <mxPoint x="-520" y="-30" as="targetPoint" />
          </mxGeometry>
        </mxCell>
        <mxCell id="K82wzEV4hnkRwuUB6ylu-74" value="member_pw&lt;br&gt;change_pw" style="edgeLabel;html=1;align=left;verticalAlign=middle;resizable=0;points=[];" vertex="1" connectable="0" parent="K82wzEV4hnkRwuUB6ylu-73">
          <mxGeometry x="0.2488" relative="1" as="geometry">
            <mxPoint x="-19.5" y="-22.009999999999998" as="offset" />
          </mxGeometry>
        </mxCell>
        <mxCell id="K82wzEV4hnkRwuUB6ylu-75" style="edgeStyle=orthogonalEdgeStyle;rounded=0;orthogonalLoop=1;jettySize=auto;html=1;exitX=0.5;exitY=1;exitDx=0;exitDy=0;entryX=0.25;entryY=0;entryDx=0;entryDy=0;strokeColor=#000000;" edge="1" parent="1" source="K82wzEV4hnkRwuUB6ylu-77" target="K82wzEV4hnkRwuUB6ylu-49">
          <mxGeometry relative="1" as="geometry">
            <Array as="points">
              <mxPoint x="-586" y="70" />
              <mxPoint x="-100" y="70" />
            </Array>
          </mxGeometry>
        </mxCell>
        <mxCell id="K82wzEV4hnkRwuUB6ylu-76" value="비밀번호 검사 성공" style="edgeLabel;html=1;align=center;verticalAlign=middle;resizable=0;points=[];" vertex="1" connectable="0" parent="K82wzEV4hnkRwuUB6ylu-75">
          <mxGeometry x="-0.512" y="-2" relative="1" as="geometry">
            <mxPoint x="189" as="offset" />
          </mxGeometry>
        </mxCell>
        <mxCell id="K82wzEV4hnkRwuUB6ylu-77" value="비밀번호 변경처리&lt;br&gt;/member/pw.do&lt;br&gt;비밀번호 검사 후 수정" style="rounded=0;whiteSpace=wrap;html=1;fontColor=#FF3333;" vertex="1" parent="1">
          <mxGeometry x="-666" y="-53" width="160" height="60" as="geometry" />
        </mxCell>
        <mxCell id="K82wzEV4hnkRwuUB6ylu-78" style="edgeStyle=orthogonalEdgeStyle;rounded=0;orthogonalLoop=1;jettySize=auto;html=1;exitX=1;exitY=0.75;exitDx=0;exitDy=0;" edge="1" parent="1" source="K82wzEV4hnkRwuUB6ylu-77">
          <mxGeometry relative="1" as="geometry">
            <mxPoint x="-500" y="-10" as="sourcePoint" />
            <mxPoint x="-380" y="-10" as="targetPoint" />
          </mxGeometry>
        </mxCell>
        <mxCell id="K82wzEV4hnkRwuUB6ylu-79" value="비밀번호 검사 실패" style="edgeLabel;html=1;align=center;verticalAlign=middle;resizable=0;points=[];" vertex="1" connectable="0" parent="K82wzEV4hnkRwuUB6ylu-78">
          <mxGeometry x="0.1616" relative="1" as="geometry">
            <mxPoint x="-6.67" as="offset" />
          </mxGeometry>
        </mxCell>
        <mxCell id="K82wzEV4hnkRwuUB6ylu-80" value="" style="edgeStyle=orthogonalEdgeStyle;rounded=0;orthogonalLoop=1;jettySize=auto;html=1;entryX=1;entryY=0.5;entryDx=0;entryDy=0;" edge="1" parent="1" source="K82wzEV4hnkRwuUB6ylu-81" target="K82wzEV4hnkRwuUB6ylu-88">
          <mxGeometry relative="1" as="geometry" />
        </mxCell>
        <mxCell id="K82wzEV4hnkRwuUB6ylu-81" value="관리페이지&lt;br&gt;/admin/home.jsp" style="rounded=0;whiteSpace=wrap;html=1;" vertex="1" parent="1">
          <mxGeometry x="-840" y="-780" width="120" height="60" as="geometry" />
        </mxCell>
        <mxCell id="K82wzEV4hnkRwuUB6ylu-82" value="" style="rounded=0;whiteSpace=wrap;html=1;fillColor=#f8cecc;strokeColor=#b85450;" vertex="1" parent="1">
          <mxGeometry x="-840" y="-810" width="120" height="30" as="geometry" />
        </mxCell>
        <mxCell id="K82wzEV4hnkRwuUB6ylu-83" value="" style="rounded=0;whiteSpace=wrap;html=1;fillColor=#dae8fc;strokeColor=#6c8ebf;" vertex="1" parent="1">
          <mxGeometry x="-840" y="-720" width="120" height="30" as="geometry" />
        </mxCell>
        <mxCell id="K82wzEV4hnkRwuUB6ylu-84" value="" style="edgeStyle=orthogonalEdgeStyle;rounded=0;orthogonalLoop=1;jettySize=auto;html=1;entryX=1;entryY=0.5;entryDx=0;entryDy=0;" edge="1" parent="1" source="K82wzEV4hnkRwuUB6ylu-88" target="K82wzEV4hnkRwuUB6ylu-94">
          <mxGeometry relative="1" as="geometry" />
        </mxCell>
        <mxCell id="K82wzEV4hnkRwuUB6ylu-85" value="member_no" style="edgeLabel;html=1;align=center;verticalAlign=middle;resizable=0;points=[];" vertex="1" connectable="0" parent="K82wzEV4hnkRwuUB6ylu-84">
          <mxGeometry x="0.1963" relative="1" as="geometry">
            <mxPoint x="7" y="10" as="offset" />
          </mxGeometry>
        </mxCell>
        <mxCell id="K82wzEV4hnkRwuUB6ylu-86" style="edgeStyle=orthogonalEdgeStyle;rounded=0;orthogonalLoop=1;jettySize=auto;html=1;exitX=0;exitY=0.25;exitDx=0;exitDy=0;entryX=1;entryY=0.5;entryDx=0;entryDy=0;fontSize=40;" edge="1" parent="1" source="K82wzEV4hnkRwuUB6ylu-88" target="K82wzEV4hnkRwuUB6ylu-110">
          <mxGeometry relative="1" as="geometry" />
        </mxCell>
        <mxCell id="K82wzEV4hnkRwuUB6ylu-87" value="&lt;font style=&quot;font-size: 11px&quot;&gt;member_no&lt;/font&gt;" style="edgeLabel;html=1;align=center;verticalAlign=middle;resizable=0;points=[];fontSize=11;" vertex="1" connectable="0" parent="K82wzEV4hnkRwuUB6ylu-86">
          <mxGeometry x="0.0596" relative="1" as="geometry">
            <mxPoint as="offset" />
          </mxGeometry>
        </mxCell>
        <mxCell id="K82wzEV4hnkRwuUB6ylu-88" value="회원검색&lt;br&gt;/admin/list.jsp" style="rounded=0;whiteSpace=wrap;html=1;" vertex="1" parent="1">
          <mxGeometry x="-1073" y="-780" width="120" height="60" as="geometry" />
        </mxCell>
        <mxCell id="K82wzEV4hnkRwuUB6ylu-89" value="member_no" style="edgeStyle=orthogonalEdgeStyle;rounded=0;orthogonalLoop=1;jettySize=auto;html=1;" edge="1" parent="1" source="K82wzEV4hnkRwuUB6ylu-90" target="K82wzEV4hnkRwuUB6ylu-103">
          <mxGeometry relative="1" as="geometry" />
        </mxCell>
        <mxCell id="K82wzEV4hnkRwuUB6ylu-90" value="" style="rounded=0;whiteSpace=wrap;html=1;fillColor=#f8cecc;strokeColor=#b85450;" vertex="1" parent="1">
          <mxGeometry x="-1073" y="-810" width="120" height="30" as="geometry" />
        </mxCell>
        <mxCell id="K82wzEV4hnkRwuUB6ylu-91" value="member_no" style="edgeStyle=orthogonalEdgeStyle;rounded=0;orthogonalLoop=1;jettySize=auto;html=1;" edge="1" parent="1" source="K82wzEV4hnkRwuUB6ylu-92" target="K82wzEV4hnkRwuUB6ylu-100">
          <mxGeometry x="-0.4286" y="3" relative="1" as="geometry">
            <mxPoint as="offset" />
          </mxGeometry>
        </mxCell>
        <mxCell id="K82wzEV4hnkRwuUB6ylu-92" value="" style="rounded=0;whiteSpace=wrap;html=1;fillColor=#dae8fc;strokeColor=#6c8ebf;" vertex="1" parent="1">
          <mxGeometry x="-1073" y="-720" width="120" height="30" as="geometry" />
        </mxCell>
        <mxCell id="K82wzEV4hnkRwuUB6ylu-93" value="회원검색만 가능하도록 구성" style="text;html=1;strokeColor=none;fillColor=none;align=center;verticalAlign=middle;whiteSpace=wrap;rounded=0;" vertex="1" parent="1">
          <mxGeometry x="-1090" y="-830" width="160" height="20" as="geometry" />
        </mxCell>
        <mxCell id="K82wzEV4hnkRwuUB6ylu-94" value="회원상세보기&lt;br&gt;/admin/detail.jsp" style="rounded=0;whiteSpace=wrap;html=1;" vertex="1" parent="1">
          <mxGeometry x="-1300" y="-780" width="120" height="60" as="geometry" />
        </mxCell>
        <mxCell id="K82wzEV4hnkRwuUB6ylu-95" value="" style="rounded=0;whiteSpace=wrap;html=1;fillColor=#f8cecc;strokeColor=#b85450;" vertex="1" parent="1">
          <mxGeometry x="-1300" y="-810" width="120" height="30" as="geometry" />
        </mxCell>
        <mxCell id="K82wzEV4hnkRwuUB6ylu-96" value="" style="rounded=0;whiteSpace=wrap;html=1;fillColor=#dae8fc;strokeColor=#6c8ebf;" vertex="1" parent="1">
          <mxGeometry x="-1300" y="-720" width="120" height="30" as="geometry" />
        </mxCell>
        <mxCell id="K82wzEV4hnkRwuUB6ylu-97" value="내정보와 유사" style="text;html=1;strokeColor=none;fillColor=none;align=center;verticalAlign=middle;whiteSpace=wrap;rounded=0;" vertex="1" parent="1">
          <mxGeometry x="-1300" y="-830" width="120" height="20" as="geometry" />
        </mxCell>
        <mxCell id="K82wzEV4hnkRwuUB6ylu-98" value="member_no&lt;br&gt;member_nick&lt;br&gt;member_birth&lt;br&gt;member_auth&lt;br&gt;member_point" style="edgeStyle=orthogonalEdgeStyle;rounded=0;orthogonalLoop=1;jettySize=auto;html=1;align=left;strokeColor=#0000FF;" edge="1" parent="1" source="K82wzEV4hnkRwuUB6ylu-99" target="K82wzEV4hnkRwuUB6ylu-105">
          <mxGeometry x="0.7701" y="40" relative="1" as="geometry">
            <mxPoint as="offset" />
          </mxGeometry>
        </mxCell>
        <mxCell id="K82wzEV4hnkRwuUB6ylu-99" value="회원정보수정&lt;br&gt;/admin/edit.jsp" style="rounded=0;whiteSpace=wrap;html=1;" vertex="1" parent="1">
          <mxGeometry x="-1073" y="-590" width="120" height="60" as="geometry" />
        </mxCell>
        <mxCell id="K82wzEV4hnkRwuUB6ylu-100" value="" style="rounded=0;whiteSpace=wrap;html=1;fillColor=#f8cecc;strokeColor=#b85450;" vertex="1" parent="1">
          <mxGeometry x="-1073" y="-620" width="120" height="30" as="geometry" />
        </mxCell>
        <mxCell id="K82wzEV4hnkRwuUB6ylu-101" value="" style="rounded=0;whiteSpace=wrap;html=1;fillColor=#dae8fc;strokeColor=#6c8ebf;" vertex="1" parent="1">
          <mxGeometry x="-1073" y="-530" width="120" height="30" as="geometry" />
        </mxCell>
        <mxCell id="K82wzEV4hnkRwuUB6ylu-102" value="" style="edgeStyle=orthogonalEdgeStyle;rounded=0;orthogonalLoop=1;jettySize=auto;html=1;entryX=1;entryY=0.25;entryDx=0;entryDy=0;" edge="1" parent="1" source="K82wzEV4hnkRwuUB6ylu-103" target="K82wzEV4hnkRwuUB6ylu-88">
          <mxGeometry relative="1" as="geometry">
            <mxPoint x="-858" y="-930" as="targetPoint" />
            <Array as="points">
              <mxPoint x="-918" y="-930" />
              <mxPoint x="-918" y="-765" />
            </Array>
          </mxGeometry>
        </mxCell>
        <mxCell id="K82wzEV4hnkRwuUB6ylu-103" value="회원탈퇴&lt;br&gt;/admin/delete.do&lt;br&gt;" style="rounded=0;whiteSpace=wrap;html=1;fontColor=#FF3333;" vertex="1" parent="1">
          <mxGeometry x="-1088" y="-960" width="150" height="60" as="geometry" />
        </mxCell>
        <mxCell id="K82wzEV4hnkRwuUB6ylu-104" value="member_no" style="edgeStyle=orthogonalEdgeStyle;rounded=0;orthogonalLoop=1;jettySize=auto;html=1;" edge="1" parent="1" source="K82wzEV4hnkRwuUB6ylu-105" target="K82wzEV4hnkRwuUB6ylu-96">
          <mxGeometry relative="1" as="geometry" />
        </mxCell>
        <mxCell id="K82wzEV4hnkRwuUB6ylu-105" value="회원수정 처리&lt;br&gt;/admin/edit.do" style="rounded=0;whiteSpace=wrap;html=1;fontColor=#FF3333;" vertex="1" parent="1">
          <mxGeometry x="-1320" y="-590" width="160" height="60" as="geometry" />
        </mxCell>
        <mxCell id="K82wzEV4hnkRwuUB6ylu-106" value="탈퇴만 하고 로그아웃은 불필요" style="text;html=1;strokeColor=none;fillColor=none;align=center;verticalAlign=middle;whiteSpace=wrap;rounded=0;" vertex="1" parent="1">
          <mxGeometry x="-1098" y="-980" width="170" height="20" as="geometry" />
        </mxCell>
        <mxCell id="K82wzEV4hnkRwuUB6ylu-107" value="회원 기능 : /member" style="text;html=1;strokeColor=none;fillColor=none;align=center;verticalAlign=middle;whiteSpace=wrap;rounded=0;fontSize=40;" vertex="1" parent="1">
          <mxGeometry x="-910" y="-210" width="420" height="60" as="geometry" />
        </mxCell>
        <mxCell id="K82wzEV4hnkRwuUB6ylu-108" value="관리자 기능 : /admin" style="text;html=1;strokeColor=none;fillColor=none;align=center;verticalAlign=middle;whiteSpace=wrap;rounded=0;fontSize=40;" vertex="1" parent="1">
          <mxGeometry x="-1320" y="-1100" width="420" height="60" as="geometry" />
        </mxCell>
        <mxCell id="K82wzEV4hnkRwuUB6ylu-109" value="임시 발급된 비밀번호&lt;br&gt;&lt;font color=&quot;#ff0000&quot;&gt;1.redirect 시 파라미터 추가&lt;/font&gt;&lt;br&gt;&lt;font color=&quot;#0000ff&quot;&gt;2.forward 처리&lt;/font&gt;" style="edgeStyle=orthogonalEdgeStyle;rounded=0;orthogonalLoop=1;jettySize=auto;html=1;strokeColor=#000000;fontSize=11;align=left;" edge="1" parent="1" source="K82wzEV4hnkRwuUB6ylu-110" target="K82wzEV4hnkRwuUB6ylu-115">
          <mxGeometry x="0.8621" y="30" relative="1" as="geometry">
            <mxPoint as="offset" />
          </mxGeometry>
        </mxCell>
        <mxCell id="K82wzEV4hnkRwuUB6ylu-110" value="임시비밀번호 발급&lt;br&gt;/admin/pw.do" style="rounded=0;whiteSpace=wrap;html=1;fontColor=#FF3333;" vertex="1" parent="1">
          <mxGeometry x="-1315" y="-960" width="150" height="60" as="geometry" />
        </mxCell>
        <mxCell id="K82wzEV4hnkRwuUB6ylu-111" value="" style="rounded=0;whiteSpace=wrap;html=1;fillColor=#f8cecc;strokeColor=#b85450;" vertex="1" parent="1">
          <mxGeometry x="-1300" y="-810" width="120" height="30" as="geometry" />
        </mxCell>
        <mxCell id="K82wzEV4hnkRwuUB6ylu-112" value="회원상세보기&lt;br&gt;/admin/detail.jsp" style="rounded=0;whiteSpace=wrap;html=1;" vertex="1" parent="1">
          <mxGeometry x="-1300" y="-780" width="120" height="60" as="geometry" />
        </mxCell>
        <mxCell id="K82wzEV4hnkRwuUB6ylu-113" value="" style="rounded=0;whiteSpace=wrap;html=1;fillColor=#dae8fc;strokeColor=#6c8ebf;" vertex="1" parent="1">
          <mxGeometry x="-1580" y="-900" width="120" height="30" as="geometry" />
        </mxCell>
        <mxCell id="K82wzEV4hnkRwuUB6ylu-114" value="" style="rounded=0;whiteSpace=wrap;html=1;fillColor=#f8cecc;strokeColor=#b85450;" vertex="1" parent="1">
          <mxGeometry x="-1580" y="-990" width="120" height="30" as="geometry" />
        </mxCell>
        <mxCell id="K82wzEV4hnkRwuUB6ylu-115" value="임시 비밀번호 출력&lt;br&gt;/admin/pw.jsp" style="rounded=0;whiteSpace=wrap;html=1;" vertex="1" parent="1">
          <mxGeometry x="-1580" y="-960" width="120" height="60" as="geometry" />
        </mxCell>
        <mxCell id="K82wzEV4hnkRwuUB6ylu-116" value="" style="rounded=0;whiteSpace=wrap;html=1;fillColor=#dae8fc;strokeColor=#6c8ebf;" vertex="1" parent="1">
          <mxGeometry x="-350" y="350" width="120" height="30" as="geometry" />
        </mxCell>
        <mxCell id="K82wzEV4hnkRwuUB6ylu-117" value="" style="rounded=0;whiteSpace=wrap;html=1;fillColor=#f8cecc;strokeColor=#b85450;" vertex="1" parent="1">
          <mxGeometry x="-350" y="260" width="120" height="30" as="geometry" />
        </mxCell>
        <mxCell id="K82wzEV4hnkRwuUB6ylu-118" value="member_pw" style="edgeStyle=orthogonalEdgeStyle;rounded=0;orthogonalLoop=1;jettySize=auto;html=1;exitX=0.5;exitY=0;exitDx=0;exitDy=0;entryX=1;entryY=0.5;entryDx=0;entryDy=0;" edge="1" parent="1" source="K82wzEV4hnkRwuUB6ylu-117" target="K82wzEV4hnkRwuUB6ylu-121">
          <mxGeometry x="-0.4521" relative="1" as="geometry">
            <mxPoint x="-281" y="200" as="sourcePoint" />
            <mxPoint x="-361" y="200" as="targetPoint" />
            <mxPoint as="offset" />
          </mxGeometry>
        </mxCell>
        <mxCell id="K82wzEV4hnkRwuUB6ylu-119" value="수정 재확인비밀번호 /member/editpw.jsp" style="rounded=0;whiteSpace=wrap;html=1;" vertex="1" parent="1">
          <mxGeometry x="-350" y="290" width="120" height="60" as="geometry" />
        </mxCell>
        <mxCell id="K82wzEV4hnkRwuUB6ylu-120" style="edgeStyle=orthogonalEdgeStyle;rounded=0;orthogonalLoop=1;jettySize=auto;html=1;exitX=0;exitY=0.5;exitDx=0;exitDy=0;" edge="1" parent="1" source="K82wzEV4hnkRwuUB6ylu-121" target="K82wzEV4hnkRwuUB6ylu-64">
          <mxGeometry relative="1" as="geometry" />
        </mxCell>
        <mxCell id="K82wzEV4hnkRwuUB6ylu-121" value="비밀번호 처리&lt;br&gt;/member/editpw.do" style="rounded=0;whiteSpace=wrap;html=1;fontColor=#FF3333;" vertex="1" parent="1">
          <mxGeometry x="-480" y="181" width="140" height="60" as="geometry" />
        </mxCell>
        <mxCell id="K82wzEV4hnkRwuUB6ylu-122" value="" style="rounded=0;whiteSpace=wrap;html=1;fillColor=#dae8fc;strokeColor=#6c8ebf;" vertex="1" parent="1">
          <mxGeometry x="90" y="-464" width="120" height="30" as="geometry" />
        </mxCell>
        <mxCell id="K82wzEV4hnkRwuUB6ylu-123" value="house_no" style="edgeStyle=orthogonalEdgeStyle;rounded=0;orthogonalLoop=1;jettySize=auto;html=1;exitX=0.5;exitY=0;exitDx=0;exitDy=0;entryX=0.5;entryY=1;entryDx=0;entryDy=0;startArrow=classic;startFill=1;strokeColor=#000000;" edge="1" parent="1" source="K82wzEV4hnkRwuUB6ylu-124" target="K82wzEV4hnkRwuUB6ylu-139">
          <mxGeometry relative="1" as="geometry" />
        </mxCell>
        <mxCell id="K82wzEV4hnkRwuUB6ylu-124" value="" style="rounded=0;whiteSpace=wrap;html=1;fillColor=#f8cecc;strokeColor=#b85450;" vertex="1" parent="1">
          <mxGeometry x="90" y="-554" width="120" height="30" as="geometry" />
        </mxCell>
        <mxCell id="K82wzEV4hnkRwuUB6ylu-125" value="원룸 찾기&lt;br&gt;/house/oneroom.jsp" style="rounded=0;whiteSpace=wrap;html=1;" vertex="1" parent="1">
          <mxGeometry x="90" y="-524" width="120" height="60" as="geometry" />
        </mxCell>
        <mxCell id="K82wzEV4hnkRwuUB6ylu-126" value="" style="rounded=0;whiteSpace=wrap;html=1;fillColor=#dae8fc;strokeColor=#6c8ebf;" vertex="1" parent="1">
          <mxGeometry x="260" y="-461" width="120" height="30" as="geometry" />
        </mxCell>
        <mxCell id="K82wzEV4hnkRwuUB6ylu-127" value="" style="rounded=0;whiteSpace=wrap;html=1;fillColor=#f8cecc;strokeColor=#b85450;" vertex="1" parent="1">
          <mxGeometry x="260" y="-551" width="120" height="30" as="geometry" />
        </mxCell>
        <mxCell id="K82wzEV4hnkRwuUB6ylu-128" value="오피스텔 찾기&lt;br&gt;/house/office.jsp" style="rounded=0;whiteSpace=wrap;html=1;" vertex="1" parent="1">
          <mxGeometry x="260" y="-521" width="120" height="60" as="geometry" />
        </mxCell>
        <mxCell id="K82wzEV4hnkRwuUB6ylu-129" value="" style="rounded=0;whiteSpace=wrap;html=1;fillColor=#dae8fc;strokeColor=#6c8ebf;" vertex="1" parent="1">
          <mxGeometry x="-100" y="-464" width="120" height="30" as="geometry" />
        </mxCell>
        <mxCell id="K82wzEV4hnkRwuUB6ylu-130" value="" style="rounded=0;whiteSpace=wrap;html=1;fillColor=#f8cecc;strokeColor=#b85450;" vertex="1" parent="1">
          <mxGeometry x="-100" y="-554" width="120" height="30" as="geometry" />
        </mxCell>
        <mxCell id="K82wzEV4hnkRwuUB6ylu-131" value="빌라 찾기&lt;br&gt;/house/villa.jsp" style="rounded=0;whiteSpace=wrap;html=1;" vertex="1" parent="1">
          <mxGeometry x="-100" y="-524" width="120" height="60" as="geometry" />
        </mxCell>
        <mxCell id="K82wzEV4hnkRwuUB6ylu-132" value="Lat · Lng" style="edgeStyle=orthogonalEdgeStyle;rounded=0;orthogonalLoop=1;jettySize=auto;html=1;exitX=0.5;exitY=0;exitDx=0;exitDy=0;entryX=0.5;entryY=1;entryDx=0;entryDy=0;" edge="1" parent="1" source="K82wzEV4hnkRwuUB6ylu-16" target="K82wzEV4hnkRwuUB6ylu-129">
          <mxGeometry x="-0.3761" relative="1" as="geometry">
            <mxPoint x="160" y="51.99999999999977" as="sourcePoint" />
            <mxPoint x="-50" y="-350" as="targetPoint" />
            <Array as="points">
              <mxPoint x="150" y="-290" />
              <mxPoint x="-40" y="-290" />
            </Array>
            <mxPoint as="offset" />
          </mxGeometry>
        </mxCell>
        <mxCell id="K82wzEV4hnkRwuUB6ylu-133" style="edgeStyle=orthogonalEdgeStyle;rounded=0;orthogonalLoop=1;jettySize=auto;html=1;exitX=0.5;exitY=1;exitDx=0;exitDy=0;entryX=0.25;entryY=0;entryDx=0;entryDy=0;startArrow=classic;startFill=1;endArrow=none;endFill=0;strokeColor=#000000;" edge="1" parent="1" source="K82wzEV4hnkRwuUB6ylu-134" target="K82wzEV4hnkRwuUB6ylu-16">
          <mxGeometry relative="1" as="geometry">
            <Array as="points">
              <mxPoint x="-230" y="-230" />
              <mxPoint x="120" y="-230" />
            </Array>
          </mxGeometry>
        </mxCell>
        <mxCell id="K82wzEV4hnkRwuUB6ylu-134" value="" style="rounded=0;whiteSpace=wrap;html=1;fillColor=#dae8fc;strokeColor=#6c8ebf;" vertex="1" parent="1">
          <mxGeometry x="-290" y="-350" width="120" height="30" as="geometry" />
        </mxCell>
        <mxCell id="K82wzEV4hnkRwuUB6ylu-135" value="" style="rounded=0;whiteSpace=wrap;html=1;fillColor=#f8cecc;strokeColor=#b85450;" vertex="1" parent="1">
          <mxGeometry x="-290" y="-440" width="120" height="30" as="geometry" />
        </mxCell>
        <mxCell id="K82wzEV4hnkRwuUB6ylu-136" value="찜한 매물&lt;br&gt;/likes/likes.jsp" style="rounded=0;whiteSpace=wrap;html=1;" vertex="1" parent="1">
          <mxGeometry x="-290" y="-410" width="120" height="60" as="geometry" />
        </mxCell>
        <mxCell id="K82wzEV4hnkRwuUB6ylu-137" value="house_no" style="edgeStyle=orthogonalEdgeStyle;rounded=0;orthogonalLoop=1;jettySize=auto;html=1;exitX=1;exitY=0.5;exitDx=0;exitDy=0;entryX=0.589;entryY=-0.019;entryDx=0;entryDy=0;entryPerimeter=0;strokeColor=#000000;startArrow=classic;startFill=1;" edge="1" parent="1" source="K82wzEV4hnkRwuUB6ylu-139" target="K82wzEV4hnkRwuUB6ylu-127">
          <mxGeometry x="0.6112" relative="1" as="geometry">
            <mxPoint as="offset" />
          </mxGeometry>
        </mxCell>
        <mxCell id="K82wzEV4hnkRwuUB6ylu-138" value="house_no" style="edgeStyle=orthogonalEdgeStyle;rounded=0;orthogonalLoop=1;jettySize=auto;html=1;exitX=0;exitY=0.5;exitDx=0;exitDy=0;strokeColor=#000000;startArrow=classic;startFill=1;" edge="1" parent="1" source="K82wzEV4hnkRwuUB6ylu-139" target="K82wzEV4hnkRwuUB6ylu-130">
          <mxGeometry x="0.5625" relative="1" as="geometry">
            <mxPoint as="offset" />
          </mxGeometry>
        </mxCell>
        <mxCell id="K82wzEV4hnkRwuUB6ylu-139" value="찜한 매물 추가&lt;br&gt;/likes/likes_insert.do" style="rounded=0;whiteSpace=wrap;html=1;" vertex="1" parent="1">
          <mxGeometry x="90" y="-710" width="120" height="60" as="geometry" />
        </mxCell>
        <mxCell id="K82wzEV4hnkRwuUB6ylu-140" value="" style="rounded=1;whiteSpace=wrap;html=1;align=left;" vertex="1" parent="1">
          <mxGeometry x="430" y="-970" width="860" height="590" as="geometry" />
        </mxCell>
        <mxCell id="K82wzEV4hnkRwuUB6ylu-141" value="" style="rounded=1;whiteSpace=wrap;html=1;fontColor=#000000;align=left;" vertex="1" parent="1">
          <mxGeometry x="640" y="-610" width="420" height="180" as="geometry" />
        </mxCell>
        <mxCell id="K82wzEV4hnkRwuUB6ylu-142" value="" style="rounded=1;whiteSpace=wrap;html=1;fontColor=#000000;align=left;" vertex="1" parent="1">
          <mxGeometry x="670" y="-950" width="490" height="160" as="geometry" />
        </mxCell>
        <mxCell id="K82wzEV4hnkRwuUB6ylu-143" style="edgeStyle=orthogonalEdgeStyle;rounded=0;orthogonalLoop=1;jettySize=auto;html=1;exitX=1;exitY=0.25;exitDx=0;exitDy=0;entryX=0;entryY=0.5;entryDx=0;entryDy=0;" edge="1" parent="1" source="K82wzEV4hnkRwuUB6ylu-145" target="K82wzEV4hnkRwuUB6ylu-149">
          <mxGeometry relative="1" as="geometry" />
        </mxCell>
        <mxCell id="K82wzEV4hnkRwuUB6ylu-144" value="board_no" style="edgeStyle=orthogonalEdgeStyle;rounded=0;orthogonalLoop=1;jettySize=auto;html=1;exitX=1;exitY=0.5;exitDx=0;exitDy=0;align=left;" edge="1" parent="1" source="K82wzEV4hnkRwuUB6ylu-145" target="K82wzEV4hnkRwuUB6ylu-157">
          <mxGeometry relative="1" as="geometry" />
        </mxCell>
        <mxCell id="K82wzEV4hnkRwuUB6ylu-145" value="게시판 목록&lt;br&gt;/board/list.jsp" style="rounded=0;whiteSpace=wrap;html=1;" vertex="1" parent="1">
          <mxGeometry x="510" y="-740" width="120" height="60" as="geometry" />
        </mxCell>
        <mxCell id="K82wzEV4hnkRwuUB6ylu-146" value="" style="rounded=0;whiteSpace=wrap;html=1;fillColor=#f8cecc;strokeColor=#b85450;" vertex="1" parent="1">
          <mxGeometry x="510" y="-770" width="120" height="30" as="geometry" />
        </mxCell>
        <mxCell id="K82wzEV4hnkRwuUB6ylu-147" value="" style="rounded=0;whiteSpace=wrap;html=1;fillColor=#dae8fc;strokeColor=#6c8ebf;" vertex="1" parent="1">
          <mxGeometry x="510" y="-680" width="120" height="30" as="geometry" />
        </mxCell>
        <mxCell id="K82wzEV4hnkRwuUB6ylu-148" value="board_header&lt;br&gt;board_title&lt;br&gt;&lt;div style=&quot;&quot;&gt;board_content&lt;/div&gt;" style="edgeStyle=orthogonalEdgeStyle;rounded=0;orthogonalLoop=1;jettySize=auto;html=1;exitX=1;exitY=0.5;exitDx=0;exitDy=0;entryX=0;entryY=0.5;entryDx=0;entryDy=0;align=left;strokeColor=#0000FF;" edge="1" parent="1" source="K82wzEV4hnkRwuUB6ylu-149" target="K82wzEV4hnkRwuUB6ylu-153">
          <mxGeometry x="-0.5" y="-30" relative="1" as="geometry">
            <mxPoint as="offset" />
          </mxGeometry>
        </mxCell>
        <mxCell id="K82wzEV4hnkRwuUB6ylu-149" value="게시글 작성&lt;br&gt;/board/write.jsp" style="rounded=0;whiteSpace=wrap;html=1;" vertex="1" parent="1">
          <mxGeometry x="690" y="-900" width="120" height="60" as="geometry" />
        </mxCell>
        <mxCell id="K82wzEV4hnkRwuUB6ylu-150" value="" style="rounded=0;whiteSpace=wrap;html=1;fillColor=#f8cecc;strokeColor=#b85450;" vertex="1" parent="1">
          <mxGeometry x="690" y="-930" width="120" height="30" as="geometry" />
        </mxCell>
        <mxCell id="K82wzEV4hnkRwuUB6ylu-151" value="" style="rounded=0;whiteSpace=wrap;html=1;fillColor=#dae8fc;strokeColor=#6c8ebf;" vertex="1" parent="1">
          <mxGeometry x="690" y="-840" width="120" height="30" as="geometry" />
        </mxCell>
        <mxCell id="K82wzEV4hnkRwuUB6ylu-152" value="board_no" style="edgeStyle=orthogonalEdgeStyle;rounded=0;orthogonalLoop=1;jettySize=auto;html=1;exitX=0.5;exitY=1;exitDx=0;exitDy=0;entryX=1;entryY=0.5;entryDx=0;entryDy=0;strokeColor=#000000;align=left;" edge="1" parent="1" source="K82wzEV4hnkRwuUB6ylu-153" target="K82wzEV4hnkRwuUB6ylu-158">
          <mxGeometry x="-0.122" y="-20" relative="1" as="geometry">
            <mxPoint as="offset" />
          </mxGeometry>
        </mxCell>
        <mxCell id="K82wzEV4hnkRwuUB6ylu-153" value="게시글 등록&lt;br&gt;/board/write.do&lt;br&gt;(작성자는 session)" style="rounded=0;whiteSpace=wrap;html=1;fontColor=#FF0000;" vertex="1" parent="1">
          <mxGeometry x="970" y="-900" width="120" height="60" as="geometry" />
        </mxCell>
        <mxCell id="K82wzEV4hnkRwuUB6ylu-154" value="board_no" style="edgeStyle=orthogonalEdgeStyle;rounded=0;orthogonalLoop=1;jettySize=auto;html=1;exitX=0;exitY=0.75;exitDx=0;exitDy=0;entryX=0;entryY=0.5;entryDx=0;entryDy=0;strokeColor=#000000;fontColor=#000000;align=left;" edge="1" parent="1" source="K82wzEV4hnkRwuUB6ylu-157" target="K82wzEV4hnkRwuUB6ylu-163">
          <mxGeometry x="0.027" y="-15" relative="1" as="geometry">
            <mxPoint as="offset" />
          </mxGeometry>
        </mxCell>
        <mxCell id="K82wzEV4hnkRwuUB6ylu-155" value="board_no" style="edgeStyle=orthogonalEdgeStyle;rounded=0;orthogonalLoop=1;jettySize=auto;html=1;entryX=0.5;entryY=0;entryDx=0;entryDy=0;strokeColor=#000000;fontColor=#000000;align=left;exitX=1;exitY=0.5;exitDx=0;exitDy=0;" edge="1" parent="1" source="K82wzEV4hnkRwuUB6ylu-160" target="K82wzEV4hnkRwuUB6ylu-170">
          <mxGeometry x="-0.0508" relative="1" as="geometry">
            <Array as="points">
              <mxPoint x="1180" y="-665" />
            </Array>
            <mxPoint as="offset" />
          </mxGeometry>
        </mxCell>
        <mxCell id="K82wzEV4hnkRwuUB6ylu-156" value="reply_content(입력)&lt;br&gt;reply_origin(히든)" style="edgeStyle=orthogonalEdgeStyle;rounded=0;orthogonalLoop=1;jettySize=auto;html=1;exitX=1;exitY=0;exitDx=0;exitDy=0;entryX=0.5;entryY=0;entryDx=0;entryDy=0;strokeColor=#0000FF;" edge="1" parent="1" source="K82wzEV4hnkRwuUB6ylu-157" target="K82wzEV4hnkRwuUB6ylu-172">
          <mxGeometry x="0.1024" relative="1" as="geometry">
            <Array as="points">
              <mxPoint x="1230" y="-740" />
              <mxPoint x="1230" y="-920" />
              <mxPoint x="1455" y="-920" />
            </Array>
            <mxPoint as="offset" />
          </mxGeometry>
        </mxCell>
        <mxCell id="K82wzEV4hnkRwuUB6ylu-157" value="게시글 상세보기&lt;br&gt;/board/detail.jsp&lt;br&gt;댓글 등록 및 목록 출력" style="rounded=0;whiteSpace=wrap;html=1;" vertex="1" parent="1">
          <mxGeometry x="820" y="-740" width="140" height="60" as="geometry" />
        </mxCell>
        <mxCell id="K82wzEV4hnkRwuUB6ylu-158" value="" style="rounded=0;whiteSpace=wrap;html=1;fillColor=#f8cecc;strokeColor=#b85450;" vertex="1" parent="1">
          <mxGeometry x="820" y="-770" width="140" height="30" as="geometry" />
        </mxCell>
        <mxCell id="K82wzEV4hnkRwuUB6ylu-159" value="reply_no&lt;br&gt;board_no" style="edgeStyle=orthogonalEdgeStyle;rounded=0;orthogonalLoop=1;jettySize=auto;html=1;exitX=1;exitY=0.5;exitDx=0;exitDy=0;entryX=0.5;entryY=0;entryDx=0;entryDy=0;" edge="1" parent="1" source="K82wzEV4hnkRwuUB6ylu-157" target="K82wzEV4hnkRwuUB6ylu-174">
          <mxGeometry x="0.4757" relative="1" as="geometry">
            <Array as="points">
              <mxPoint x="1475" y="-710" />
            </Array>
            <mxPoint as="offset" />
          </mxGeometry>
        </mxCell>
        <mxCell id="K82wzEV4hnkRwuUB6ylu-160" value="" style="rounded=0;whiteSpace=wrap;html=1;fillColor=#dae8fc;strokeColor=#6c8ebf;" vertex="1" parent="1">
          <mxGeometry x="820" y="-680" width="140" height="30" as="geometry" />
        </mxCell>
        <mxCell id="K82wzEV4hnkRwuUB6ylu-161" value="번호를 먼저 만든 뒤 등록해야 하는 형태" style="text;html=1;strokeColor=none;fillColor=none;align=left;verticalAlign=middle;whiteSpace=wrap;rounded=0;fontColor=#000000;" vertex="1" parent="1">
          <mxGeometry x="920" y="-920" width="220" height="20" as="geometry" />
        </mxCell>
        <mxCell id="K82wzEV4hnkRwuUB6ylu-162" value="board_no&lt;br&gt;board_header&lt;br&gt;board_title&lt;br&gt;board_content" style="edgeStyle=orthogonalEdgeStyle;rounded=0;orthogonalLoop=1;jettySize=auto;html=1;fontColor=#000000;align=left;strokeColor=#0000FF;" edge="1" parent="1" source="K82wzEV4hnkRwuUB6ylu-163" target="K82wzEV4hnkRwuUB6ylu-168">
          <mxGeometry x="-0.7143" y="-30" relative="1" as="geometry">
            <mxPoint as="offset" />
          </mxGeometry>
        </mxCell>
        <mxCell id="K82wzEV4hnkRwuUB6ylu-163" value="게시글 수정 입력&lt;br&gt;/board/edit.jsp" style="rounded=0;whiteSpace=wrap;html=1;" vertex="1" parent="1">
          <mxGeometry x="675" y="-540" width="120" height="60" as="geometry" />
        </mxCell>
        <mxCell id="K82wzEV4hnkRwuUB6ylu-164" value="" style="rounded=0;whiteSpace=wrap;html=1;fillColor=#f8cecc;strokeColor=#b85450;" vertex="1" parent="1">
          <mxGeometry x="675" y="-570" width="120" height="30" as="geometry" />
        </mxCell>
        <mxCell id="K82wzEV4hnkRwuUB6ylu-165" value="" style="rounded=0;whiteSpace=wrap;html=1;fillColor=#dae8fc;strokeColor=#6c8ebf;" vertex="1" parent="1">
          <mxGeometry x="675" y="-480" width="120" height="30" as="geometry" />
        </mxCell>
        <mxCell id="K82wzEV4hnkRwuUB6ylu-166" value="고칠정보 : 말머리,제목,내용" style="text;html=1;strokeColor=none;fillColor=none;align=left;verticalAlign=middle;whiteSpace=wrap;rounded=0;fontColor=#000000;" vertex="1" parent="1">
          <mxGeometry x="665" y="-590" width="155" height="20" as="geometry" />
        </mxCell>
        <mxCell id="K82wzEV4hnkRwuUB6ylu-167" value="board_no" style="edgeStyle=orthogonalEdgeStyle;rounded=0;orthogonalLoop=1;jettySize=auto;html=1;exitX=1;exitY=0.5;exitDx=0;exitDy=0;entryX=0.5;entryY=1;entryDx=0;entryDy=0;fontColor=#000000;align=left;" edge="1" parent="1" source="K82wzEV4hnkRwuUB6ylu-168" target="K82wzEV4hnkRwuUB6ylu-160">
          <mxGeometry x="0.3226" relative="1" as="geometry">
            <mxPoint as="offset" />
          </mxGeometry>
        </mxCell>
        <mxCell id="K82wzEV4hnkRwuUB6ylu-168" value="게시글 수정&lt;br&gt;/board/edit.do" style="rounded=0;whiteSpace=wrap;html=1;fontColor=#FF0000;" vertex="1" parent="1">
          <mxGeometry x="900" y="-540" width="120" height="60" as="geometry" />
        </mxCell>
        <mxCell id="K82wzEV4hnkRwuUB6ylu-169" style="edgeStyle=orthogonalEdgeStyle;rounded=0;orthogonalLoop=1;jettySize=auto;html=1;exitX=0.5;exitY=1;exitDx=0;exitDy=0;entryX=0.5;entryY=1;entryDx=0;entryDy=0;strokeColor=#000000;fontColor=#000000;align=left;" edge="1" parent="1" source="K82wzEV4hnkRwuUB6ylu-170" target="K82wzEV4hnkRwuUB6ylu-147">
          <mxGeometry relative="1" as="geometry">
            <Array as="points">
              <mxPoint x="1180" y="-410" />
              <mxPoint x="570" y="-410" />
            </Array>
          </mxGeometry>
        </mxCell>
        <mxCell id="K82wzEV4hnkRwuUB6ylu-170" value="게시글 삭제&lt;br&gt;/board/delete.do" style="rounded=0;whiteSpace=wrap;html=1;fontColor=#FF0000;" vertex="1" parent="1">
          <mxGeometry x="1120" y="-630" width="120" height="60" as="geometry" />
        </mxCell>
        <mxCell id="K82wzEV4hnkRwuUB6ylu-171" value="board_no" style="edgeStyle=orthogonalEdgeStyle;rounded=0;orthogonalLoop=1;jettySize=auto;html=1;exitX=0.5;exitY=1;exitDx=0;exitDy=0;entryX=1;entryY=0.25;entryDx=0;entryDy=0;" edge="1" parent="1" source="K82wzEV4hnkRwuUB6ylu-172" target="K82wzEV4hnkRwuUB6ylu-157">
          <mxGeometry relative="1" as="geometry">
            <Array as="points">
              <mxPoint x="1455" y="-725" />
            </Array>
          </mxGeometry>
        </mxCell>
        <mxCell id="K82wzEV4hnkRwuUB6ylu-172" value="댓글 등록&lt;br&gt;/board/reply_insert.do" style="rounded=0;whiteSpace=wrap;html=1;fontColor=#FF0000;" vertex="1" parent="1">
          <mxGeometry x="1390" y="-890" width="130" height="60" as="geometry" />
        </mxCell>
        <mxCell id="K82wzEV4hnkRwuUB6ylu-173" value="board_no" style="edgeStyle=orthogonalEdgeStyle;rounded=0;orthogonalLoop=1;jettySize=auto;html=1;entryX=1;entryY=0.75;entryDx=0;entryDy=0;strokeColor=#000000;" edge="1" parent="1" source="K82wzEV4hnkRwuUB6ylu-174" target="K82wzEV4hnkRwuUB6ylu-157">
          <mxGeometry relative="1" as="geometry">
            <Array as="points">
              <mxPoint x="1450" y="-695" />
            </Array>
          </mxGeometry>
        </mxCell>
        <mxCell id="K82wzEV4hnkRwuUB6ylu-174" value="댓글 삭제&lt;br&gt;/board/reply_delete.do" style="rounded=0;whiteSpace=wrap;html=1;fontColor=#FF0000;" vertex="1" parent="1">
          <mxGeometry x="1410" y="-585" width="130" height="60" as="geometry" />
        </mxCell>
        <mxCell id="K82wzEV4hnkRwuUB6ylu-175" style="edgeStyle=orthogonalEdgeStyle;rounded=0;orthogonalLoop=1;jettySize=auto;html=1;exitX=0.5;exitY=1;exitDx=0;exitDy=0;strokeColor=#000000;entryX=1;entryY=0.25;entryDx=0;entryDy=0;" edge="1" parent="1" source="K82wzEV4hnkRwuUB6ylu-176" target="K82wzEV4hnkRwuUB6ylu-157">
          <mxGeometry relative="1" as="geometry">
            <mxPoint x="1390" y="-720" as="targetPoint" />
            <Array as="points">
              <mxPoint x="1605" y="-725" />
            </Array>
          </mxGeometry>
        </mxCell>
        <mxCell id="K82wzEV4hnkRwuUB6ylu-176" value="댓글 수정&lt;br&gt;/board/reply_edit.do" style="rounded=0;whiteSpace=wrap;html=1;fontColor=#FF0000;" vertex="1" parent="1">
          <mxGeometry x="1510" y="-800" width="130" height="60" as="geometry" />
        </mxCell>
        <mxCell id="K82wzEV4hnkRwuUB6ylu-177" value="reply_no(히든)&lt;br&gt;reply_content(입력)&lt;br&gt;reply_origin(히든)" style="edgeStyle=orthogonalEdgeStyle;rounded=0;orthogonalLoop=1;jettySize=auto;html=1;exitX=1;exitY=0;exitDx=0;exitDy=0;strokeColor=#0000FF;entryX=0.5;entryY=0;entryDx=0;entryDy=0;" edge="1" parent="1" source="K82wzEV4hnkRwuUB6ylu-157" target="K82wzEV4hnkRwuUB6ylu-176">
          <mxGeometry x="0.1586" relative="1" as="geometry">
            <mxPoint x="970" y="-730" as="sourcePoint" />
            <mxPoint x="1575" y="-860" as="targetPoint" />
            <Array as="points">
              <mxPoint x="1340" y="-740" />
              <mxPoint x="1340" y="-820" />
              <mxPoint x="1575" y="-820" />
            </Array>
            <mxPoint as="offset" />
          </mxGeometry>
        </mxCell>
        <mxCell id="K82wzEV4hnkRwuUB6ylu-178" value="게시판 기능 : /board" style="text;html=1;strokeColor=none;fillColor=none;align=center;verticalAlign=middle;whiteSpace=wrap;rounded=0;fontSize=40;" vertex="1" parent="1">
          <mxGeometry x="430" y="-1040" width="420" height="60" as="geometry" />
        </mxCell>
        <mxCell id="K82wzEV4hnkRwuUB6ylu-179" value="" style="rounded=1;whiteSpace=wrap;html=1;fontColor=#000000;align=left;" vertex="1" parent="1">
          <mxGeometry x="-360" y="790" width="420" height="180" as="geometry" />
        </mxCell>
        <mxCell id="K82wzEV4hnkRwuUB6ylu-180" value="house_no" style="edgeStyle=orthogonalEdgeStyle;rounded=0;orthogonalLoop=1;jettySize=auto;html=1;exitX=1;exitY=0.5;exitDx=0;exitDy=0;align=left;" edge="1" parent="1" source="K82wzEV4hnkRwuUB6ylu-181" target="K82wzEV4hnkRwuUB6ylu-186">
          <mxGeometry relative="1" as="geometry" />
        </mxCell>
        <mxCell id="K82wzEV4hnkRwuUB6ylu-181" value="등록 매물 확인&lt;br&gt;/member/myroom.jsp" style="rounded=0;whiteSpace=wrap;html=1;" vertex="1" parent="1">
          <mxGeometry x="-490" y="660" width="120" height="60" as="geometry" />
        </mxCell>
        <mxCell id="K82wzEV4hnkRwuUB6ylu-182" value="" style="rounded=0;whiteSpace=wrap;html=1;fillColor=#f8cecc;strokeColor=#b85450;" vertex="1" parent="1">
          <mxGeometry x="-490" y="630" width="120" height="30" as="geometry" />
        </mxCell>
        <mxCell id="K82wzEV4hnkRwuUB6ylu-183" value="" style="rounded=0;whiteSpace=wrap;html=1;fillColor=#dae8fc;strokeColor=#6c8ebf;" vertex="1" parent="1">
          <mxGeometry x="-490" y="720" width="120" height="30" as="geometry" />
        </mxCell>
        <mxCell id="K82wzEV4hnkRwuUB6ylu-184" value="house_no" style="edgeStyle=orthogonalEdgeStyle;rounded=0;orthogonalLoop=1;jettySize=auto;html=1;exitX=0;exitY=0.75;exitDx=0;exitDy=0;entryX=0;entryY=0.5;entryDx=0;entryDy=0;strokeColor=#000000;fontColor=#000000;align=left;" edge="1" parent="1" source="K82wzEV4hnkRwuUB6ylu-186" target="K82wzEV4hnkRwuUB6ylu-190">
          <mxGeometry x="0.027" y="-15" relative="1" as="geometry">
            <mxPoint as="offset" />
          </mxGeometry>
        </mxCell>
        <mxCell id="K82wzEV4hnkRwuUB6ylu-185" value="house_no" style="edgeStyle=orthogonalEdgeStyle;rounded=0;orthogonalLoop=1;jettySize=auto;html=1;entryX=0.5;entryY=0;entryDx=0;entryDy=0;strokeColor=#000000;fontColor=#000000;align=left;exitX=1;exitY=0.75;exitDx=0;exitDy=0;" edge="1" parent="1" source="K82wzEV4hnkRwuUB6ylu-186" target="K82wzEV4hnkRwuUB6ylu-197">
          <mxGeometry x="-0.0508" relative="1" as="geometry">
            <Array as="points">
              <mxPoint x="-40" y="700" />
              <mxPoint x="170" y="700" />
            </Array>
            <mxPoint as="offset" />
          </mxGeometry>
        </mxCell>
        <mxCell id="K82wzEV4hnkRwuUB6ylu-186" value="등록된 매물 상세보기&lt;br&gt;/member/detail.jsp" style="rounded=0;whiteSpace=wrap;html=1;" vertex="1" parent="1">
          <mxGeometry x="-180" y="660" width="140" height="60" as="geometry" />
        </mxCell>
        <mxCell id="K82wzEV4hnkRwuUB6ylu-187" value="" style="rounded=0;whiteSpace=wrap;html=1;fillColor=#f8cecc;strokeColor=#b85450;" vertex="1" parent="1">
          <mxGeometry x="-180" y="630" width="140" height="30" as="geometry" />
        </mxCell>
        <mxCell id="K82wzEV4hnkRwuUB6ylu-188" value="" style="rounded=0;whiteSpace=wrap;html=1;fillColor=#dae8fc;strokeColor=#6c8ebf;" vertex="1" parent="1">
          <mxGeometry x="-180" y="720" width="140" height="30" as="geometry" />
        </mxCell>
        <mxCell id="K82wzEV4hnkRwuUB6ylu-189" value="정보 전달" style="edgeStyle=orthogonalEdgeStyle;rounded=0;orthogonalLoop=1;jettySize=auto;html=1;fontColor=#000000;align=left;strokeColor=#0000FF;" edge="1" parent="1" source="K82wzEV4hnkRwuUB6ylu-190" target="K82wzEV4hnkRwuUB6ylu-195">
          <mxGeometry x="-0.5238" y="-13" relative="1" as="geometry">
            <mxPoint as="offset" />
          </mxGeometry>
        </mxCell>
        <mxCell id="K82wzEV4hnkRwuUB6ylu-190" value="게시글 수정 입력&lt;br&gt;/member/roomedit.jsp" style="rounded=0;whiteSpace=wrap;html=1;" vertex="1" parent="1">
          <mxGeometry x="-325" y="860" width="120" height="60" as="geometry" />
        </mxCell>
        <mxCell id="K82wzEV4hnkRwuUB6ylu-191" value="" style="rounded=0;whiteSpace=wrap;html=1;fillColor=#f8cecc;strokeColor=#b85450;" vertex="1" parent="1">
          <mxGeometry x="-325" y="830" width="120" height="30" as="geometry" />
        </mxCell>
        <mxCell id="K82wzEV4hnkRwuUB6ylu-192" value="" style="rounded=0;whiteSpace=wrap;html=1;fillColor=#dae8fc;strokeColor=#6c8ebf;" vertex="1" parent="1">
          <mxGeometry x="-325" y="920" width="120" height="30" as="geometry" />
        </mxCell>
        <mxCell id="K82wzEV4hnkRwuUB6ylu-193" value="고칠정보: ..." style="text;html=1;strokeColor=none;fillColor=none;align=left;verticalAlign=middle;whiteSpace=wrap;rounded=0;fontColor=#000000;" vertex="1" parent="1">
          <mxGeometry x="-335" y="810" width="155" height="20" as="geometry" />
        </mxCell>
        <mxCell id="K82wzEV4hnkRwuUB6ylu-194" value="house_no" style="edgeStyle=orthogonalEdgeStyle;rounded=0;orthogonalLoop=1;jettySize=auto;html=1;exitX=1;exitY=0.5;exitDx=0;exitDy=0;entryX=0.5;entryY=1;entryDx=0;entryDy=0;fontColor=#000000;align=left;" edge="1" parent="1" source="K82wzEV4hnkRwuUB6ylu-195" target="K82wzEV4hnkRwuUB6ylu-188">
          <mxGeometry x="0.3226" relative="1" as="geometry">
            <mxPoint as="offset" />
          </mxGeometry>
        </mxCell>
        <mxCell id="K82wzEV4hnkRwuUB6ylu-195" value="매물 수정&lt;br&gt;/member/roomedit.do" style="rounded=0;whiteSpace=wrap;html=1;fontColor=#FF0000;" vertex="1" parent="1">
          <mxGeometry x="-100" y="860" width="120" height="60" as="geometry" />
        </mxCell>
        <mxCell id="K82wzEV4hnkRwuUB6ylu-196" style="edgeStyle=orthogonalEdgeStyle;rounded=0;orthogonalLoop=1;jettySize=auto;html=1;exitX=0.5;exitY=1;exitDx=0;exitDy=0;entryX=0.5;entryY=1;entryDx=0;entryDy=0;strokeColor=#000000;fontColor=#000000;align=left;" edge="1" parent="1" source="K82wzEV4hnkRwuUB6ylu-197" target="K82wzEV4hnkRwuUB6ylu-183">
          <mxGeometry relative="1" as="geometry">
            <Array as="points">
              <mxPoint x="180" y="990" />
              <mxPoint x="-430" y="990" />
            </Array>
          </mxGeometry>
        </mxCell>
        <mxCell id="K82wzEV4hnkRwuUB6ylu-197" value="매물 삭제&lt;br&gt;/member/roomdelete.do" style="rounded=0;whiteSpace=wrap;html=1;fontColor=#FF0000;" vertex="1" parent="1">
          <mxGeometry x="100" y="770" width="140" height="60" as="geometry" />
        </mxCell>
        <mxCell id="K82wzEV4hnkRwuUB6ylu-198" value="" style="rounded=0;whiteSpace=wrap;html=1;fillColor=#dae8fc;strokeColor=#6c8ebf;" vertex="1" parent="1">
          <mxGeometry x="500" y="836" width="120" height="30" as="geometry" />
        </mxCell>
        <mxCell id="K82wzEV4hnkRwuUB6ylu-199" style="edgeStyle=orthogonalEdgeStyle;rounded=0;orthogonalLoop=1;jettySize=auto;html=1;exitX=0.75;exitY=0;exitDx=0;exitDy=0;entryX=0.75;entryY=1;entryDx=0;entryDy=0;startArrow=none;startFill=0;endArrow=classic;endFill=1;strokeColor=#0000FF;" edge="1" parent="1" source="K82wzEV4hnkRwuUB6ylu-200" target="K82wzEV4hnkRwuUB6ylu-204">
          <mxGeometry relative="1" as="geometry" />
        </mxCell>
        <mxCell id="K82wzEV4hnkRwuUB6ylu-200" value="" style="rounded=0;whiteSpace=wrap;html=1;fillColor=#f8cecc;strokeColor=#b85450;" vertex="1" parent="1">
          <mxGeometry x="500" y="746" width="120" height="30" as="geometry" />
        </mxCell>
        <mxCell id="K82wzEV4hnkRwuUB6ylu-201" value="매물 등록&lt;br&gt;/house/insert.jsp" style="rounded=0;whiteSpace=wrap;html=1;" vertex="1" parent="1">
          <mxGeometry x="500" y="776" width="120" height="60" as="geometry" />
        </mxCell>
        <mxCell id="K82wzEV4hnkRwuUB6ylu-202" value="등록 성공" style="edgeStyle=orthogonalEdgeStyle;rounded=0;orthogonalLoop=1;jettySize=auto;html=1;exitX=0.5;exitY=0;exitDx=0;exitDy=0;entryX=0.5;entryY=1;entryDx=0;entryDy=0;startArrow=none;startFill=0;endArrow=classic;endFill=1;" edge="1" parent="1" source="K82wzEV4hnkRwuUB6ylu-204" target="K82wzEV4hnkRwuUB6ylu-205">
          <mxGeometry relative="1" as="geometry" />
        </mxCell>
        <mxCell id="K82wzEV4hnkRwuUB6ylu-203" value="등록 실패" style="edgeStyle=orthogonalEdgeStyle;rounded=0;orthogonalLoop=1;jettySize=auto;html=1;exitX=0.25;exitY=1;exitDx=0;exitDy=0;entryX=0.25;entryY=0;entryDx=0;entryDy=0;startArrow=none;startFill=0;endArrow=classic;endFill=1;strokeColor=#000000;" edge="1" parent="1" source="K82wzEV4hnkRwuUB6ylu-204" target="K82wzEV4hnkRwuUB6ylu-200">
          <mxGeometry relative="1" as="geometry" />
        </mxCell>
        <mxCell id="K82wzEV4hnkRwuUB6ylu-204" value="매물 등록&lt;br&gt;/house/insert.do" style="rounded=0;whiteSpace=wrap;html=1;" vertex="1" parent="1">
          <mxGeometry x="500" y="632" width="120" height="60" as="geometry" />
        </mxCell>
        <mxCell id="K82wzEV4hnkRwuUB6ylu-205" value="" style="rounded=0;whiteSpace=wrap;html=1;fillColor=#dae8fc;strokeColor=#6c8ebf;" vertex="1" parent="1">
          <mxGeometry x="487" y="546" width="146" height="30" as="geometry" />
        </mxCell>
        <mxCell id="K82wzEV4hnkRwuUB6ylu-206" value="" style="rounded=0;whiteSpace=wrap;html=1;fillColor=#f8cecc;strokeColor=#b85450;" vertex="1" parent="1">
          <mxGeometry x="487" y="456" width="146" height="30" as="geometry" />
        </mxCell>
        <mxCell id="K82wzEV4hnkRwuUB6ylu-207" style="edgeStyle=orthogonalEdgeStyle;rounded=0;orthogonalLoop=1;jettySize=auto;html=1;exitX=0;exitY=0.25;exitDx=0;exitDy=0;entryX=0.75;entryY=0;entryDx=0;entryDy=0;startArrow=none;startFill=0;endArrow=classic;endFill=1;strokeColor=#000000;" edge="1" parent="1" source="K82wzEV4hnkRwuUB6ylu-205" target="K82wzEV4hnkRwuUB6ylu-182">
          <mxGeometry relative="1" as="geometry">
            <Array as="points">
              <mxPoint x="240" y="554" />
              <mxPoint x="240" y="610" />
              <mxPoint x="-400" y="610" />
            </Array>
          </mxGeometry>
        </mxCell>
        <mxCell id="K82wzEV4hnkRwuUB6ylu-208" value="매물 등록&lt;br&gt;/house/insert_success.jsp" style="rounded=0;whiteSpace=wrap;html=1;" vertex="1" parent="1">
          <mxGeometry x="487" y="486" width="146" height="60" as="geometry" />
        </mxCell>
      </root>
    </mxGraphModel>
  </diagram>
</mxfile>
